<?xml version="1.0" encoding="utf-8"?>
<!-- Generator: Adobe Illustrator 17.1.0, SVG Export Plug-In . SVG Version: 6.00 Build 0)  -->
<!DOCTYPE svg PUBLIC "-//W3C//DTD SVG 1.1//EN" "http://www.w3.org/Graphics/SVG/1.1/DTD/svg11.dtd">
<svg version="1.1" id="Sprite" xmlns="http://www.w3.org/2000/svg" xmlns:xlink="http://www.w3.org/1999/xlink" x="0px" y="0px"
	 viewBox="0 0 200 200" enable-background="new 0 0 200 200" xml:space="preserve" height="200" width="200">
<g id="Index">
	<rect y="0" fill="#777777" width="10.4" height="10.4"/>
	<rect x="14.6" y="0" fill="#777777" width="10.4" height="10.4"/>
	<rect y="14.6" fill="#777777" width="10.4" height="10.4"/>
	<rect x="14.6" y="14.6" fill="#777777" width="10.4" height="10.4"/>
</g>
<g id="Index_hover">
	<rect x="30" y="0" fill="#E1580A" width="10.4" height="10.4"/>
	<rect x="44.6" y="0" fill="#E1580A" width="10.4" height="10.4"/>
	<rect x="30" y="14.6" fill="#E1580A" width="10.4" height="10.4"/>
	<rect x="44.6" y="14.6" fill="#E1580A" width="10.4" height="10.4"/>
</g>
<g id="Arrow_list">
	<polygon fill="#E1580A" points="45,35.8 52,35.8 48.9,38.9 50,40 55,35 50,30 48.9,31.1 52,34.2 45,34.2 	"/>
</g>
<g id="Back_hover">
	<circle fill="#FCEEE6" cx="127.5" cy="22.5" r="22.5"/>
	<polygon fill="#E1580A" points="138.8,20.5 121.1,20.5 128.9,12.7 126.1,9.8 113.4,22.5 126.1,35.2 128.9,32.3 121.1,24.5 
		138.8,24.5 	"/>
</g>
<polygon id="Back" fill="#E1580A" points="93.8,20.5 76.1,20.5 83.9,12.7 81.1,9.8 68.4,22.5 81.1,35.2 83.9,32.3 76.1,24.5 
	93.8,24.5 "/>
<path id="Burden" fill="#777777" d="M172.1,4.5L164,0.4l-3.9,2l-0.7,0.4L155,4.9v0v0.9v10.1l8.2,4.1l0.8,0.4l0.8-0.4l8.2-4.1V5.8
	V4.9L172.1,4.5z M164,2.2l6.3,3.2l-2.1,1.1l-6.3-3.2L164,2.2z M160.1,4.2l6.3,3.2L164,8.5l-6.3-3.2L160.1,4.2z M156.6,14.9V6.6
	l6.6,3.3v8.3L156.6,14.9z M171.4,14.9l-6.6,3.3V9.9l6.6-3.3V14.9z"/>
<path id="Less" fill="#AEAEAE" d="M30,30c-5.5,0-10,4.5-10,10c0,5.5,4.5,10,10,10s10-4.5,10-10C40,34.5,35.5,30,30,30z M36.2,41.3
	H23.8v-2.5h12.4V41.3z"/>
<path id="More" fill="#AEAEAE" d="M10,30C4.5,30,0,34.5,0,40c0,5.5,4.5,10,10,10s10-4.5,10-10C20,34.5,15.5,30,10,30z M16.2,41.3
	h-4.9v4.9H8.7v-4.9H3.8v-2.5h4.9v-4.9h2.5v4.9h4.9V41.3z"/>
</svg>
