<?xml version="1.0" encoding="utf-8"?>
<!-- Generator: Adobe Illustrator 17.1.0, SVG Export Plug-In . SVG Version: 6.00 Build 0)  -->
<!DOCTYPE svg PUBLIC "-//W3C//DTD SVG 1.1//EN" "http://www.w3.org/Graphics/SVG/1.1/DTD/svg11.dtd">
<svg version="1.1" id="Sprite" xmlns="http://www.w3.org/2000/svg" xmlns:xlink="http://www.w3.org/1999/xlink" x="0px" y="0px"
	 viewBox="0 0 250 250" enable-background="new 0 0 250 250" xml:space="preserve" width="250" height="250">
<g id="Index">
	<rect y="0" fill="#777777" width="10.4" height="10.4"/>
	<rect x="14.6" y="0" fill="#777777" width="10.4" height="10.4"/>
	<rect y="14.6" fill="#777777" width="10.4" height="10.4"/>
	<rect x="14.6" y="14.6" fill="#777777" width="10.4" height="10.4"/>
</g>
<g id="Index_hover">
	<rect x="30" y="0" fill="#E1580A" width="10.4" height="10.4"/>
	<rect x="44.6" y="0" fill="#E1580A" width="10.4" height="10.4"/>
	<rect x="30" y="14.6" fill="#E1580A" width="10.4" height="10.4"/>
	<rect x="44.6" y="14.6" fill="#E1580A" width="10.4" height="10.4"/>
</g>
<g id="Arrow_list">
	<polygon fill="#E1580A" points="45,35.8 52,35.8 48.9,38.9 50,40 55,35 50,30 48.9,31.1 52,34.2 45,34.2 	"/>
</g>
<g id="Back_hover">
	<circle fill="#FCEEE6" cx="127.5" cy="22.5" r="22.5"/>
	<polygon fill="#E1580A" points="138.8,20.5 121.1,20.5 128.9,12.7 126.1,9.8 113.4,22.5 126.1,35.2 128.9,32.3 121.1,24.5 
		138.8,24.5 	"/>
</g>
<polygon id="Back" fill="#E1580A" points="93.8,20.5 76.1,20.5 83.9,12.7 81.1,9.8 68.4,22.5 81.1,35.2 83.9,32.3 76.1,24.5 
	93.8,24.5 "/>
<path id="Burden" fill="#777777" d="M172.1,4.5L164,0.4l-3.9,2l-0.7,0.4L155,4.9v0v0.9v10.1l8.2,4.1l0.8,0.4l0.8-0.4l8.2-4.1V5.8
	V4.9L172.1,4.5z M164,2.2l6.3,3.2l-2.1,1.1l-6.3-3.2L164,2.2z M160.1,4.2l6.3,3.2L164,8.5l-6.3-3.2L160.1,4.2z M156.6,14.9V6.6
	l6.6,3.3v8.3L156.6,14.9z M171.4,14.9l-6.6,3.3V9.9l6.6-3.3V14.9z"/>
<path id="Less" fill="#AEAEAE" d="M30,30c-5.5,0-10,4.5-10,10c0,5.5,4.5,10,10,10s10-4.5,10-10C40,34.5,35.5,30,30,30z M36.2,41.3
	H23.8v-2.5h12.4V41.3z"/>
<path id="More" fill="#AEAEAE" d="M10,30C4.5,30,0,34.5,0,40c0,5.5,4.5,10,10,10s10-4.5,10-10C20,34.5,15.5,30,10,30z M16.2,41.3
	h-4.9v4.9H8.7v-4.9H3.8v-2.5h4.9v-4.9h2.5v4.9h4.9V41.3z"/>
<circle fill="#F8F8F8" cx="25" cy="75" r="25"/>
<circle fill="#F8F8F8" cx="75" cy="75" r="25"/>
<circle fill="#F8F8F8" cx="125" cy="75" r="25"/>
<circle fill="#F8F8F8" cx="175" cy="75" r="25"/>
<circle fill="#F8F8F8" cx="225" cy="75" r="25"/>
<path fill="#777777" d="M119.8,80.2l10.3-1.7v1l-10.3,1.7V80.2z M119.8,69.3l9.2-1.5h1.1l4.6-5.2h-19.5l4.6,5.2V69.3z M130.2,74.5
	l-10.3,1.7v1l10.3-1.7V74.5z M130.2,76.5l-10.3,1.7v1l10.3-1.7V76.5z M130.2,70.5l-10.3,1.7v1l10.3-1.7V70.5z M130.2,72.5l-10.3,1.7
	v1l10.3-1.7V72.5z M130.2,80.4l-10.3,1.7v0.1l-4.6,5.2h19.5l-4.6-5.2V80.4z M130.2,68.5l-10.3,1.7v1l10.3-1.7V68.5z"/>
<circle fill="#F8F8F8" cx="25" cy="125" r="25"/>
<circle fill="#F8F8F8" cx="75" cy="125" r="25"/>
<circle fill="#F8F8F8" cx="125" cy="125" r="25"/>
<circle fill="#F8F8F8" cx="175" cy="125" r="25"/>
<circle fill="#F8F8F8" cx="225" cy="125" r="25"/>
<path fill="#E1580A" d="M119.8,130.2l10.3-1.7v1l-10.3,1.7V130.2z M119.8,119.3l9.2-1.5h1.1l4.6-5.2h-19.5l4.6,5.2V119.3z
	 M130.2,124.5l-10.3,1.7v1l10.3-1.7V124.5z M130.2,126.5l-10.3,1.7v1l10.3-1.7V126.5z M130.2,120.5l-10.3,1.7v1l10.3-1.7V120.5z
	 M130.2,122.5l-10.3,1.7v1l10.3-1.7V122.5z M130.2,130.4l-10.3,1.7v0.1l-4.6,5.2h19.5l-4.6-5.2V130.4z M130.2,118.5l-10.3,1.7v1
	l10.3-1.7V118.5z"/>
<path fill="#777777" d="M22.1,63c0.2-0.4,0.4-0.8,0.8-1.1c0.3-0.3,0.7-0.6,1.1-0.7c0.4-0.2,0.9-0.3,1.4-0.3c0.5,0,0.9,0.1,1.4,0.3
	c0.4,0.2,0.8,0.4,1.1,0.7c0.3,0.3,0.6,0.7,0.8,1.1c0.2,0.4,0.3,0.9,0.3,1.4c0,0.5-0.1,1-0.3,1.4c-0.2,0.4-0.4,0.8-0.8,1.1
	c-0.3,0.3-0.7,0.6-1.1,0.7c-0.4,0.2-0.9,0.3-1.4,0.3c-0.5,0-1-0.1-1.4-0.3c-0.4-0.2-0.8-0.4-1.1-0.7c-0.3-0.3-0.6-0.7-0.8-1.1
	c-0.2-0.4-0.3-0.9-0.3-1.4C21.9,63.9,22,63.4,22.1,63z M33.2,88.4H16.8v-4.5h6.3v-9.5h-5.8v-4.5h10.5v14h5.4V88.4z"/>
<path fill="#E1580A" d="M22.1,113c0.2-0.4,0.4-0.8,0.8-1.1c0.3-0.3,0.7-0.6,1.1-0.7c0.4-0.2,0.9-0.3,1.4-0.3c0.5,0,0.9,0.1,1.4,0.3
	c0.4,0.2,0.8,0.4,1.1,0.7c0.3,0.3,0.6,0.7,0.8,1.1c0.2,0.4,0.3,0.9,0.3,1.4c0,0.5-0.1,1-0.3,1.4c-0.2,0.4-0.4,0.8-0.8,1.1
	c-0.3,0.3-0.7,0.6-1.1,0.7c-0.4,0.2-0.9,0.3-1.4,0.3c-0.5,0-1-0.1-1.4-0.3c-0.4-0.2-0.8-0.4-1.1-0.7c-0.3-0.3-0.6-0.7-0.8-1.1
	c-0.2-0.4-0.3-0.9-0.3-1.4C21.9,113.9,22,113.4,22.1,113z M33.2,138.4H16.8v-4.5h6.3v-9.5h-5.8v-4.5h10.5v14h5.4V138.4z"/>
<path fill="#777777" d="M65.6,62.5v25h18.8v-25H65.6z M81.8,84.1H68.2v-1.2h13.7V84.1z M81.8,80.7H68.2v-1.2h13.7V80.7z M81.8,77.3
	H68.2v-1.2h13.7V77.3z M81.8,73.9H68.2v-1.2h13.7V73.9z M81.8,70.5H68.2v-1.2h13.7V70.5z M81.8,67.1H68.2v-1.2h13.7V67.1z"/>
<path fill="#E1580A" d="M65.6,112.5v25h18.8v-25H65.6z M81.8,134.1H68.2v-1.2h13.7V134.1z M81.8,130.7H68.2v-1.2h13.7V130.7z
	 M81.8,127.3H68.2v-1.2h13.7V127.3z M81.8,123.9H68.2v-1.2h13.7V123.9z M81.8,120.5H68.2v-1.2h13.7V120.5z M81.8,117.1H68.2v-1.2
	h13.7V117.1z"/>
<path fill="#777777" d="M177.2,86.6c-0.2,0.4-0.4,0.8-0.8,1.1c-0.3,0.3-0.7,0.6-1.2,0.8c-0.4,0.2-0.9,0.3-1.4,0.3
	c-0.5,0-1-0.1-1.4-0.3c-0.4-0.2-0.8-0.4-1.1-0.8c-0.3-0.3-0.6-0.7-0.8-1.1c-0.2-0.4-0.3-0.9-0.3-1.4c0-0.5,0.1-1,0.3-1.4
	c0.2-0.4,0.4-0.8,0.8-1.1c0.3-0.3,0.7-0.6,1.1-0.8c0.4-0.2,0.9-0.3,1.4-0.3c0.5,0,0.9,0.1,1.4,0.3c0.4,0.2,0.8,0.4,1.2,0.8
	c0.3,0.3,0.6,0.7,0.8,1.1c0.2,0.4,0.3,0.9,0.3,1.4C177.5,85.7,177.4,86.1,177.2,86.6z M184.2,70.1c0,1-0.2,2-0.5,2.9
	c-0.3,0.9-0.8,1.8-1.3,2.5c-0.6,0.7-1.3,1.3-2.2,1.7c-0.9,0.4-1.8,0.6-2.9,0.6c-0.4,0-0.6,0.1-0.8,0.3c-0.2,0.2-0.3,0.5-0.3,0.8v1.2
	h-4.8V77c0-1,0.3-1.8,1-2.5c0.7-0.7,1.5-1,2.5-1h0.7c1.1,0,1.9-0.3,2.5-1c0.6-0.7,0.9-1.6,0.9-2.7c0-1.1-0.4-2-1.1-2.7
	c-0.7-0.7-1.7-1.1-3-1.1c-0.7,0-1.3,0.1-1.8,0.4c-0.5,0.2-1,0.6-1.4,1c-0.4,0.4-0.7,0.9-0.8,1.4c-0.2,0.5-0.3,1.1-0.3,1.7v1.6h-5v-2
	c0-1.1,0.2-2.2,0.6-3.3c0.4-1.1,1-2,1.8-2.8c0.8-0.8,1.8-1.5,2.9-1.9c1.2-0.5,2.5-0.7,4-0.7c1.3,0,2.6,0.2,3.7,0.7
	c1.1,0.4,2.1,1.1,2.9,1.8c0.8,0.8,1.4,1.7,1.8,2.7c0.4,1,0.6,2.2,0.6,3.4V70.1z"/>
<path fill="#E1580A" d="M177.2,136.6c-0.2,0.4-0.4,0.8-0.8,1.1c-0.3,0.3-0.7,0.6-1.2,0.8c-0.4,0.2-0.9,0.3-1.4,0.3
	c-0.5,0-1-0.1-1.4-0.3c-0.4-0.2-0.8-0.4-1.1-0.8c-0.3-0.3-0.6-0.7-0.8-1.1c-0.2-0.4-0.3-0.9-0.3-1.4c0-0.5,0.1-1,0.3-1.4
	c0.2-0.4,0.4-0.8,0.8-1.1c0.3-0.3,0.7-0.6,1.1-0.8c0.4-0.2,0.9-0.3,1.4-0.3c0.5,0,0.9,0.1,1.4,0.3c0.4,0.2,0.8,0.4,1.2,0.8
	c0.3,0.3,0.6,0.7,0.8,1.1c0.2,0.4,0.3,0.9,0.3,1.4C177.5,135.7,177.4,136.1,177.2,136.6z M184.2,120.1c0,1-0.2,2-0.5,2.9
	c-0.3,0.9-0.8,1.8-1.3,2.5c-0.6,0.7-1.3,1.3-2.2,1.7c-0.9,0.4-1.8,0.6-2.9,0.6c-0.4,0-0.6,0.1-0.8,0.3c-0.2,0.2-0.3,0.5-0.3,0.8v1.2
	h-4.8V127c0-1,0.3-1.8,1-2.5c0.7-0.7,1.5-1,2.5-1h0.7c1.1,0,1.9-0.3,2.5-1c0.6-0.7,0.9-1.6,0.9-2.7c0-1.1-0.4-2-1.1-2.7
	c-0.7-0.7-1.7-1.1-3-1.1c-0.7,0-1.3,0.1-1.8,0.4c-0.5,0.2-1,0.6-1.4,1c-0.4,0.4-0.7,0.9-0.8,1.4c-0.2,0.5-0.3,1.1-0.3,1.7v1.6h-5v-2
	c0-1.1,0.2-2.2,0.6-3.3c0.4-1.1,1-2,1.8-2.8c0.8-0.8,1.8-1.5,2.9-1.9c1.2-0.5,2.5-0.7,4-0.7c1.3,0,2.6,0.2,3.7,0.7
	c1.1,0.4,2.1,1.1,2.9,1.8c0.8,0.8,1.4,1.7,1.8,2.7c0.4,1,0.6,2.2,0.6,3.4V120.1z"/>
<g>
	<g>
		<path fill="#777777" d="M225,61.2c-4.6,0-8.3,3.7-8.3,8.3c0,5.5,3.8,6.5,3.8,11.7h0v3.2c0,2.4,2,4.4,4.4,4.4h0.1
			c2.4,0,4.4-2,4.4-4.4v-3.2c0-5.2,3.8-6.1,3.8-11.7C233.3,64.9,229.6,61.2,225,61.2z M227.7,79.2H225h-2.7c-0.3-2-1.2-3.4-2-4.7
			c-0.9-1.5-1.7-2.8-1.7-5.1c0-3.5,2.8-6.3,6.3-6.3s6.3,2.8,6.3,6.3c0,2.3-0.8,3.6-1.7,5.1C228.9,75.8,228,77.2,227.7,79.2z"/>
	</g>
</g>
<g>
	<g>
		<path fill="#E1580A" d="M225,111.2c-4.6,0-8.3,3.7-8.3,8.3c0,5.5,3.8,6.5,3.8,11.7h0v3.2c0,2.4,2,4.4,4.4,4.4h0.1
			c2.4,0,4.4-2,4.4-4.4v-3.2c0-5.2,3.8-6.1,3.8-11.7C233.3,114.9,229.6,111.2,225,111.2z M227.7,129.2H225h-2.7
			c-0.3-2-1.2-3.4-2-4.7c-0.9-1.5-1.7-2.8-1.7-5.1c0-3.5,2.8-6.3,6.3-6.3s6.3,2.8,6.3,6.3c0,2.3-0.8,3.6-1.7,5.1
			C228.9,125.8,228,127.2,227.7,129.2z"/>
	</g>
</g>
</svg>
